<svg width="309" height="66" viewBox="0 0 309 66" fill="none" xmlns="http://www.w3.org/2000/svg">
<rect width="309" height="66" fill="#2E2E2E"/>
<path d="M11.62 32.732L25.444 26.936L26.668 30.824L16.588 34.748L26.668 38.672L25.444 42.56L11.62 36.728V32.732Z" fill="#FC9867"/>
<path d="M30.268 44V21.716H43.912V25.388H34.696V30.788H42.76V34.46H34.696V44H30.268Z" fill="#78DCE8"/>
<path d="M48.268 44V21.716H61.768V25.388H52.696V30.392H60.58V34.064H52.696V40.328H62.56V44H48.268Z" fill="#78DCE8"/>
<path d="M66.268 44V21.716H79.768V25.388H70.696V30.392H78.58V34.064H70.696V40.328H80.56V44H66.268Z" fill="#78DCE8"/>
<path d="M93.232 25.064C92.176 25.064 91.288 25.256 90.568 25.64C89.848 26.024 89.248 26.564 88.768 27.26C88.312 27.932 87.976 28.748 87.76 29.708C87.568 30.644 87.472 31.688 87.472 32.84C87.472 35.504 87.892 37.472 88.732 38.744C89.572 39.992 90.808 40.616 92.44 40.616C92.704 40.616 92.992 40.604 93.304 40.58C93.616 40.556 93.904 40.52 94.168 40.472V32.336H98.596V43.46C98.068 43.652 97.24 43.868 96.112 44.108C95.008 44.348 93.664 44.468 92.08 44.468C90.688 44.468 89.428 44.228 88.3 43.748C87.196 43.244 86.248 42.512 85.456 41.552C84.664 40.568 84.052 39.356 83.62 37.916C83.188 36.452 82.972 34.76 82.972 32.84C82.972 30.944 83.224 29.276 83.728 27.836C84.232 26.372 84.916 25.148 85.78 24.164C86.644 23.18 87.664 22.448 88.84 21.968C90.016 21.464 91.276 21.212 92.62 21.212C93.484 21.212 94.252 21.284 94.924 21.428C95.62 21.548 96.22 21.692 96.724 21.86C97.228 22.028 97.636 22.208 97.948 22.4C98.284 22.592 98.536 22.736 98.704 22.832L97.552 26.36C97.024 26.024 96.376 25.724 95.608 25.46C94.84 25.196 94.048 25.064 93.232 25.064Z" fill="#78DCE8"/>
<path d="M115.768 43.424C114.952 43.64 113.956 43.856 112.78 44.072C111.628 44.288 110.368 44.396 109 44.396C107.608 44.396 106.468 44.204 105.58 43.82C104.692 43.436 103.984 42.896 103.456 42.2C102.952 41.48 102.604 40.64 102.412 39.68C102.22 38.72 102.124 37.664 102.124 36.512V27.08H106.552V35.936C106.552 37.496 106.732 38.66 107.092 39.428C107.476 40.172 108.208 40.544 109.288 40.544C109.96 40.544 110.632 40.484 111.304 40.364V27.08H115.768V43.424Z" fill="#78DCE8"/>
<path d="M128.224 22.22C128.224 23.084 127.948 23.768 127.396 24.272C126.844 24.776 126.184 25.028 125.416 25.028C124.648 25.028 123.988 24.776 123.436 24.272C122.908 23.768 122.644 23.084 122.644 22.22C122.644 21.332 122.908 20.636 123.436 20.132C123.988 19.628 124.648 19.376 125.416 19.376C126.184 19.376 126.844 19.628 127.396 20.132C127.948 20.636 128.224 21.332 128.224 22.22ZM134.812 43.28C133.9 43.712 133.036 44 132.22 44.144C131.428 44.312 130.696 44.396 130.024 44.396C128.872 44.396 127.9 44.228 127.108 43.892C126.34 43.556 125.716 43.076 125.236 42.452C124.78 41.804 124.456 41.024 124.264 40.112C124.072 39.2 123.976 38.156 123.976 36.98V30.752H119.296V27.08H128.404V37.556C128.404 38.564 128.584 39.32 128.944 39.824C129.328 40.304 129.952 40.544 130.816 40.544C131.224 40.544 131.716 40.496 132.292 40.4C132.868 40.28 133.516 40.052 134.236 39.716L134.812 43.28Z" fill="#78DCE8"/>
<path d="M141.508 35.432C141.508 36.944 141.784 38.18 142.336 39.14C142.912 40.1 143.824 40.58 145.072 40.58C145.432 40.58 145.768 40.568 146.08 40.544C146.392 40.52 146.716 40.484 147.052 40.436V31.22C146.716 31.028 146.332 30.872 145.9 30.752C145.468 30.608 145.012 30.536 144.532 30.536C143.476 30.536 142.708 30.956 142.228 31.796C141.748 32.636 141.508 33.848 141.508 35.432ZM151.48 43.496C150.664 43.76 149.668 43.976 148.492 44.144C147.316 44.312 146.164 44.396 145.036 44.396C142.396 44.396 140.392 43.616 139.024 42.056C137.68 40.496 137.008 38.36 137.008 35.648C137.008 32.888 137.572 30.716 138.7 29.132C139.852 27.524 141.544 26.72 143.776 26.72C144.376 26.72 144.964 26.792 145.54 26.936C146.116 27.056 146.62 27.236 147.052 27.476V19.772L151.48 19.016V43.496Z" fill="#78DCE8"/>
<path d="M155.116 35.684C155.116 34.196 155.344 32.888 155.8 31.76C156.256 30.632 156.856 29.696 157.6 28.952C158.344 28.184 159.196 27.608 160.156 27.224C161.116 26.84 162.1 26.648 163.108 26.648C165.604 26.648 167.5 27.392 168.796 28.88C170.092 30.344 170.74 32.492 170.74 35.324C170.74 35.612 170.728 35.912 170.704 36.224C170.704 36.536 170.692 36.788 170.668 36.98H159.688C159.688 38.084 160.144 38.96 161.056 39.608C161.968 40.232 163.144 40.544 164.584 40.544C165.472 40.544 166.312 40.448 167.104 40.256C167.92 40.064 168.604 39.872 169.156 39.68L169.768 43.46C169 43.724 168.184 43.94 167.32 44.108C166.456 44.3 165.484 44.396 164.404 44.396C162.964 44.396 161.668 44.216 160.516 43.856C159.388 43.472 158.416 42.92 157.6 42.2C156.808 41.456 156.196 40.544 155.764 39.464C155.332 38.384 155.116 37.124 155.116 35.684ZM166.456 33.92C166.456 33.464 166.396 33.032 166.276 32.624C166.156 32.192 165.964 31.808 165.7 31.472C165.436 31.136 165.1 30.872 164.692 30.68C164.284 30.464 163.78 30.356 163.18 30.356C162.604 30.356 162.1 30.452 161.668 30.644C161.26 30.836 160.912 31.1 160.624 31.436C160.36 31.772 160.144 32.156 159.976 32.588C159.832 33.02 159.736 33.464 159.688 33.92H166.456Z" fill="#78DCE8"/>
<path d="M184.24 41.156C184.24 42.212 183.916 43.016 183.268 43.568C182.62 44.12 181.876 44.396 181.036 44.396C180.604 44.396 180.196 44.324 179.812 44.18C179.428 44.036 179.08 43.832 178.768 43.568C178.48 43.28 178.24 42.944 178.048 42.56C177.88 42.152 177.796 41.684 177.796 41.156C177.796 40.652 177.88 40.208 178.048 39.824C178.24 39.416 178.48 39.08 178.768 38.816C179.08 38.552 179.428 38.348 179.812 38.204C180.196 38.06 180.604 37.988 181.036 37.988C181.876 37.988 182.62 38.264 183.268 38.816C183.916 39.368 184.24 40.148 184.24 41.156Z" fill="#FF6188"/>
<path d="M195.508 35.432C195.508 36.944 195.784 38.18 196.336 39.14C196.912 40.1 197.824 40.58 199.072 40.58C199.432 40.58 199.768 40.568 200.08 40.544C200.392 40.52 200.716 40.484 201.052 40.436V31.22C200.716 31.028 200.332 30.872 199.9 30.752C199.468 30.608 199.012 30.536 198.532 30.536C197.476 30.536 196.708 30.956 196.228 31.796C195.748 32.636 195.508 33.848 195.508 35.432ZM205.48 43.496C204.664 43.76 203.668 43.976 202.492 44.144C201.316 44.312 200.164 44.396 199.036 44.396C196.396 44.396 194.392 43.616 193.024 42.056C191.68 40.496 191.008 38.36 191.008 35.648C191.008 32.888 191.572 30.716 192.7 29.132C193.852 27.524 195.544 26.72 197.776 26.72C198.376 26.72 198.964 26.792 199.54 26.936C200.116 27.056 200.62 27.236 201.052 27.476V19.772L205.48 19.016V43.496Z" fill="#78DCE8"/>
<path d="M209.116 35.684C209.116 34.196 209.344 32.888 209.8 31.76C210.256 30.632 210.856 29.696 211.6 28.952C212.344 28.184 213.196 27.608 214.156 27.224C215.116 26.84 216.1 26.648 217.108 26.648C219.604 26.648 221.5 27.392 222.796 28.88C224.092 30.344 224.74 32.492 224.74 35.324C224.74 35.612 224.728 35.912 224.704 36.224C224.704 36.536 224.692 36.788 224.668 36.98H213.688C213.688 38.084 214.144 38.96 215.056 39.608C215.968 40.232 217.144 40.544 218.584 40.544C219.472 40.544 220.312 40.448 221.104 40.256C221.92 40.064 222.604 39.872 223.156 39.68L223.768 43.46C223 43.724 222.184 43.94 221.32 44.108C220.456 44.3 219.484 44.396 218.404 44.396C216.964 44.396 215.668 44.216 214.516 43.856C213.388 43.472 212.416 42.92 211.6 42.2C210.808 41.456 210.196 40.544 209.764 39.464C209.332 38.384 209.116 37.124 209.116 35.684ZM220.456 33.92C220.456 33.464 220.396 33.032 220.276 32.624C220.156 32.192 219.964 31.808 219.7 31.472C219.436 31.136 219.1 30.872 218.692 30.68C218.284 30.464 217.78 30.356 217.18 30.356C216.604 30.356 216.1 30.452 215.668 30.644C215.26 30.836 214.912 31.1 214.624 31.436C214.36 31.772 214.144 32.156 213.976 32.588C213.832 33.02 213.736 33.464 213.688 33.92H220.456Z" fill="#78DCE8"/>
<path d="M232.984 44C231.904 41.864 230.8 39.368 229.672 36.512C228.568 33.632 227.512 30.488 226.504 27.08H231.148C231.364 27.992 231.616 28.964 231.904 29.996C232.216 31.028 232.54 32.072 232.876 33.128C233.212 34.16 233.548 35.168 233.884 36.152C234.244 37.136 234.58 38.036 234.892 38.852C235.204 38.036 235.552 37.136 235.936 36.152C236.32 35.168 236.692 34.16 237.052 33.128C237.436 32.072 237.796 31.028 238.132 29.996C238.492 28.964 238.78 27.992 238.996 27.08H243.496C242.488 30.488 241.372 33.632 240.148 36.512C238.924 39.368 237.772 41.864 236.692 44H232.984Z" fill="#78DCE8"/>
<path d="M268.3 49.94H263.692L273.772 18.836H278.308L268.3 49.94Z" fill="#FC9867"/>
<path d="M296.524 36.764L282.7 42.596L281.44 38.708L291.556 34.784L281.44 30.86L282.7 26.972L296.524 32.768V36.764Z" fill="#FC9867"/>
</svg>
